<svg xmlns="http://www.w3.org/2000/svg" width="124" height="41" viewBox="0 0 124 41">
<g>
<path d="M 56.77 23.10 C55.22,23.74 53.53,24.99 53.01,25.88 C52.49,26.77 52.05,26.98 52.03,26.34 C52.01,25.53 49.19,25.28 42.50,25.49 C37.10,25.67 32.74,25.38 32.40,24.83 C32.07,24.30 32.74,23.62 33.90,23.32 C35.05,23.01 36.00,22.28 36.00,21.69 C36.00,21.10 36.67,21.49 37.50,22.56 C38.92,24.40 39.07,24.41 40.36,22.75 C42.03,20.60 42.86,20.56 45.05,22.55 C46.75,24.08 52.00,23.69 52.00,22.03 C52.00,21.62 53.12,21.49 54.49,21.75 C57.26,22.28 58.92,19.86 57.25,17.74 C55.23,15.19 55.17,10.83 57.12,8.88 C59.18,6.82 60.75,6.56 62.92,7.93 C64.73,9.08 64.54,15.53 62.59,18.51 C61.23,20.58 61.31,20.82 63.64,21.88 C65.02,22.51 66.53,22.79 67.00,22.50 C67.47,22.21 69.01,22.50 70.42,23.15 C72.57,24.13 73.32,24.02 75.01,22.49 C76.74,20.92 77.35,20.85 79.45,21.97 C81.51,23.08 82.11,23.03 83.51,21.63 C85.69,19.45 87.00,19.57 87.00,21.96 C87.00,23.05 86.10,24.41 85.00,25.00 C83.64,25.73 83.00,25.74 83.00,25.04 C83.00,23.50 80.26,23.78 77.46,25.62 C75.92,26.63 75.00,26.81 75.00,26.10 C75.00,24.69 68.79,25.00 67.77,26.45 C67.28,27.14 67.03,27.08 67.02,26.26 C67.01,25.58 65.33,24.33 63.29,23.48 C60.31,22.23 59.03,22.16 56.77,23.10 ZM 58.52 16.68 L 60.27 19.34 L 61.70 16.61 C63.66,12.86 63.03,9.58 60.29,9.19 C57.17,8.74 56.16,13.06 58.52,16.68 ZM 19.74 22.99 C19.39,24.98 16.39,25.47 15.69,23.65 C15.39,22.85 15.77,21.36 16.55,20.35 C17.78,18.74 18.09,18.69 18.98,20.00 C19.54,20.83 19.88,22.17 19.74,22.99 ZM 103.00 21.31 C103.00,22.67 102.30,24.06 101.43,24.39 C100.21,24.85 99.94,24.40 100.18,22.32 C100.60,18.84 103.00,17.98 103.00,21.31 ZM 29.47 24.05 C28.40,25.78 26.00,25.03 26.00,22.96 C26.00,21.23 26.30,21.09 28.03,22.01 C29.14,22.61 29.79,23.53 29.47,24.05 Z" fill="rgb(72,72,72)"/>
<path d="M 97.00 30.02 C95.08,31.23 94.81,31.18 93.00,29.16 C91.03,26.97 90.97,16.84 92.91,16.20 C93.66,15.95 94.00,16.19 93.66,16.74 C92.90,17.96 96.24,22.00 98.01,22.00 C98.71,22.00 99.86,21.21 100.57,20.25 C101.79,18.60 101.96,18.61 103.72,20.50 C105.81,22.74 106.16,28.11 104.26,28.75 C102.96,29.18 99.75,26.58 100.57,25.76 C100.83,25.50 100.34,24.70 99.48,23.98 C97.12,22.03 95.45,24.14 97.17,26.91 C98.30,28.73 98.27,29.21 97.00,30.02 ZM 19.74 22.99 C19.88,22.17 19.54,20.83 18.98,20.00 C18.86,19.83 18.75,19.68 18.65,19.55 C18.89,19.75 19.16,20.02 19.50,20.36 C22.08,22.93 24.57,22.07 24.18,18.73 C23.82,15.72 25.90,14.97 27.90,17.38 C28.76,18.41 29.18,20.63 29.14,22.88 C28.88,22.57 28.49,22.26 28.03,22.01 C26.30,21.09 26.00,21.23 26.00,22.96 C26.00,24.78 27.85,25.58 29.02,24.58 C28.87,25.80 28.57,26.94 28.12,27.78 C27.46,29.00 26.10,30.00 25.08,30.00 C22.88,30.00 21.75,26.68 23.37,24.96 C24.25,24.01 23.58,23.88 20.36,24.37 C19.68,24.47 19.08,24.52 18.54,24.53 C19.13,24.24 19.61,23.72 19.74,22.99 ZM 75.00 26.12 C75.02,26.80 75.94,26.62 77.46,25.62 C80.26,23.78 83.00,23.50 83.00,25.04 C83.00,25.74 83.64,25.73 85.00,25.00 C86.06,24.44 86.93,23.15 87.00,22.10 C87.00,22.19 87.00,22.28 87.00,22.38 C87.00,23.69 87.68,25.32 88.50,26.00 C90.00,27.24 90.51,30.15 89.43,31.24 C88.58,32.09 82.09,27.70 82.04,26.25 C82.02,25.56 81.53,25.00 80.96,25.00 C80.28,25.00 80.25,25.61 80.90,26.80 C82.38,29.58 80.97,30.88 77.87,29.59 C75.38,28.56 75.01,28.14 75.00,26.12 ZM 43.00 30.00 C40.63,32.37 38.44,32.58 37.64,30.50 C37.32,29.67 37.48,29.00 38.00,29.00 C38.52,29.00 38.69,28.36 38.40,27.59 C38.08,26.76 38.60,25.98 39.68,25.70 C39.91,25.64 40.11,25.59 40.27,25.54 C40.98,25.53 41.73,25.52 42.50,25.49 C43.65,25.46 44.69,25.43 45.62,25.42 C45.23,25.68 45.00,26.06 45.00,26.50 C45.00,27.33 44.10,28.90 43.00,30.00 ZM 47.67 23.47 C47.79,23.34 47.90,23.16 48.03,22.96 C48.53,22.16 48.55,21.37 48.07,21.20 C46.77,20.75 47.99,17.22 49.68,16.57 C50.69,16.18 51.54,16.97 52.31,19.00 C52.79,20.29 53.53,21.27 54.30,21.72 C53.02,21.50 52.00,21.63 52.00,22.03 C52.00,23.12 49.71,23.67 47.67,23.47 ZM 56.77 23.10 C57.27,22.89 57.73,22.73 58.17,22.62 C57.62,22.79 57.01,23.06 56.25,23.42 C54.21,24.39 53.00,25.70 53.00,26.93 C53.00,29.05 49.23,32.26 47.79,31.37 C46.67,30.68 47.17,26.74 48.50,25.77 C48.65,25.66 48.71,25.56 48.71,25.46 C50.99,25.57 52.02,25.85 52.03,26.34 C52.05,26.98 52.49,26.77 53.01,25.88 C53.53,24.99 55.22,23.74 56.77,23.10 ZM 37.48 25.52 C37.15,25.81 37.00,26.25 37.00,26.88 C37.00,29.27 34.48,31.40 32.52,30.65 C31.36,30.20 31.24,29.50 31.99,27.54 C32.52,26.14 32.68,25.00 32.35,25.00 C32.18,25.00 32.18,24.81 32.31,24.52 C32.31,24.62 32.33,24.73 32.40,24.83 C32.62,25.19 34.60,25.44 37.48,25.52 ZM 32.69 23.89 C32.78,23.77 32.88,23.64 32.99,23.51 C34.00,22.30 33.90,21.90 32.49,21.36 C30.94,20.76 31.01,20.50 33.13,18.87 C35.15,17.31 35.24,17.04 33.69,17.02 C32.67,17.01 32.17,16.54 32.54,15.93 C33.55,14.30 37.00,17.91 37.00,20.60 C37.00,21.23 37.09,21.79 37.25,22.25 C36.54,21.42 36.00,21.16 36.00,21.69 C36.00,22.28 35.05,23.01 33.90,23.32 C33.39,23.45 32.97,23.66 32.69,23.89 ZM 66.81 25.77 C66.94,25.96 67.01,26.12 67.02,26.26 C67.03,27.08 67.28,27.14 67.77,26.45 C68.40,25.55 71.02,25.09 72.92,25.21 C72.56,25.49 72.46,26.06 72.66,26.82 C73.40,29.63 70.92,31.15 68.50,29.37 C67.40,28.57 66.61,27.71 66.75,27.46 C67.08,26.85 67.11,26.30 66.81,25.77 ZM 70.61 23.23 C70.55,23.20 70.48,23.17 70.42,23.15 C69.01,22.50 67.47,22.21 67.00,22.50 C66.70,22.69 65.95,22.64 65.09,22.40 C67.19,22.93 68.23,22.00 67.68,19.89 C67.33,18.54 67.72,18.00 69.03,18.00 C71.50,18.00 72.46,19.75 70.97,21.53 C70.36,22.27 70.31,22.85 70.61,23.23 ZM 103.00 21.31 C103.00,17.98 100.60,18.84 100.18,22.32 C99.94,24.40 100.21,24.85 101.43,24.39 C102.30,24.06 103.00,22.67 103.00,21.31 ZM 17.74 19.13 C17.43,19.26 17.07,19.66 16.55,20.35 C15.77,21.36 15.39,22.85 15.69,23.65 C15.71,23.68 15.72,23.71 15.73,23.74 C15.14,23.04 15.35,21.90 16.45,20.40 C17.03,19.61 17.37,19.19 17.74,19.13 ZM 75.05 22.46 C76.53,21.11 77.19,20.89 78.73,21.61 C77.18,20.89 76.53,21.12 75.01,22.49 C73.84,23.55 73.12,23.93 72.08,23.73 C72.98,23.71 74.10,23.31 75.05,22.46 ZM 38.41 23.64 C38.88,23.81 39.42,23.70 39.95,23.27 C39.30,24.05 38.97,24.18 38.41,23.64 ZM 57.12 21.20 C57.94,20.31 58.13,18.85 57.25,17.74 C58.26,19.02 58.05,20.41 57.12,21.20 ZM 85.76 20.10 C85.18,20.21 84.42,20.72 83.51,21.63 C84.44,20.70 85.19,20.19 85.76,20.10 ZM 41.69 21.39 C41.94,21.22 42.19,21.12 42.45,21.10 C42.19,21.12 41.94,21.22 41.69,21.39 Z" fill="rgb(191,191,191)"/>
<path d="M 0.00 20.50 L 0.00 0.00 L 62.00 0.00 L 124.00 0.00 L 124.00 20.50 L 124.00 41.00 L 62.00 41.00 L 0.00 41.00 L 0.00 20.50 ZM 43.00 30.00 C44.10,28.90 45.00,27.33 45.00,26.50 C45.00,25.61 45.91,25.01 47.25,25.02 C48.49,25.02 49.05,25.36 48.50,25.77 C47.17,26.74 46.67,30.68 47.79,31.37 C49.23,32.26 53.00,29.05 53.00,26.93 C53.00,25.70 54.21,24.39 56.25,23.42 C59.19,22.03 59.86,22.03 63.25,23.45 C66.58,24.85 67.56,25.98 66.75,27.46 C66.61,27.71 67.40,28.57 68.50,29.37 C70.92,31.15 73.40,29.63 72.66,26.82 C72.37,25.70 72.73,25.00 73.59,25.00 C74.37,25.00 75.00,25.45 75.00,26.00 C75.00,28.12 75.33,28.53 77.87,29.59 C80.97,30.88 82.38,29.58 80.90,26.80 C80.25,25.61 80.28,25.00 80.96,25.00 C81.53,25.00 82.02,25.56 82.04,26.25 C82.09,27.70 88.58,32.09 89.43,31.24 C90.51,30.15 90.00,27.24 88.50,26.00 C87.68,25.32 87.00,23.69 87.00,22.38 C87.00,19.60 85.80,19.34 83.51,21.63 C82.11,23.03 81.51,23.08 79.45,21.97 C77.36,20.85 76.74,20.92 75.05,22.46 C72.64,24.64 69.07,23.83 70.97,21.53 C72.46,19.75 71.50,18.00 69.03,18.00 C67.72,18.00 67.33,18.54 67.68,19.89 C68.35,22.44 66.68,23.27 63.64,21.88 C61.31,20.82 61.23,20.58 62.59,18.51 C64.54,15.53 64.73,9.08 62.92,7.93 C60.75,6.56 59.18,6.82 57.12,8.88 C55.17,10.83 55.23,15.19 57.25,17.74 C58.61,19.46 57.42,22.00 55.25,22.00 C54.16,22.00 52.99,20.81 52.31,19.00 C51.54,16.97 50.69,16.18 49.68,16.57 C47.99,17.22 46.77,20.75 48.07,21.20 C48.55,21.37 48.53,22.16 48.03,22.96 C47.25,24.22 46.86,24.18 45.23,22.71 C42.87,20.58 42.04,20.57 40.51,22.65 C38.98,24.75 37.00,23.59 37.00,20.60 C37.00,17.91 33.55,14.30 32.54,15.93 C32.17,16.54 32.67,17.01 33.69,17.02 C35.24,17.04 35.15,17.31 33.13,18.87 C31.01,20.50 30.94,20.76 32.49,21.36 C33.90,21.90 34.00,22.30 32.99,23.51 C32.31,24.33 32.02,25.00 32.35,25.00 C32.68,25.00 32.52,26.14 31.99,27.54 C31.24,29.50 31.36,30.20 32.52,30.65 C34.48,31.40 37.00,29.27 37.00,26.88 C37.00,25.56 37.67,25.03 39.25,25.12 C41.05,25.21 41.14,25.33 39.68,25.70 C38.60,25.98 38.08,26.76 38.40,27.59 C38.69,28.36 38.52,29.00 38.00,29.00 C37.48,29.00 37.32,29.67 37.64,30.50 C38.44,32.58 40.63,32.37 43.00,30.00 ZM 97.00 30.02 C98.27,29.21 98.30,28.73 97.17,26.91 C95.45,24.14 97.12,22.03 99.48,23.98 C100.34,24.70 100.83,25.50 100.57,25.76 C99.75,26.58 102.96,29.18 104.26,28.75 C106.16,28.11 105.81,22.74 103.72,20.50 C101.96,18.61 101.79,18.60 100.57,20.25 C99.86,21.21 98.71,22.00 98.01,22.00 C96.24,22.00 92.90,17.96 93.66,16.74 C94.00,16.19 93.66,15.95 92.91,16.20 C90.97,16.84 91.03,26.97 93.00,29.16 C94.81,31.18 95.08,31.23 97.00,30.02 ZM 28.12 27.78 C29.58,25.05 29.46,19.26 27.90,17.38 C25.90,14.97 23.82,15.72 24.18,18.73 C24.57,22.07 22.08,22.93 19.50,20.36 C17.84,18.70 17.69,18.70 16.45,20.40 C14.17,23.52 15.70,25.07 20.36,24.37 C23.58,23.88 24.25,24.01 23.37,24.96 C21.75,26.68 22.88,30.00 25.08,30.00 C26.10,30.00 27.46,29.00 28.12,27.78 ZM 58.52 16.68 C56.16,13.06 57.17,8.74 60.29,9.19 C63.03,9.58 63.66,12.86 61.70,16.61 L 60.27 19.34 L 58.52 16.68 Z" fill="rgb(252,252,252)"/>
</g>
</svg>